<svg width="17" height="17" viewBox="0 0 17 17" fill="none" xmlns="http://www.w3.org/2000/svg">
<path d="M15.8054 8.02994L12.3349 4.57619C12.0749 4.3175 11.6545 4.31846 11.3957 4.57844C11.137 4.83839 11.138 5.25884 11.398 5.51756L13.7276 7.83593H1.66418C1.29742 7.83593 1.00012 8.13323 1.00012 8.49999C1.00012 8.86675 1.29742 9.16405 1.66418 9.16405H13.7276L11.398 11.4824C11.1381 11.7411 11.1371 12.1616 11.3958 12.4215C11.6545 12.6816 12.075 12.6824 12.3349 12.4238L15.8048 8.97068C16.0649 8.7111 16.0646 8.28865 15.8054 8.02994Z" fill="url(#paint0_linear)"/>
<defs>
<linearGradient id="paint0_linear" x1="8.49998" y1="4.38281" x2="8.49998" y2="12.6172" gradientUnits="userSpaceOnUse">
<stop stop-color="#EB926E"/>
<stop offset="0.588542" stop-color="#EB652F"/>
</linearGradient>
</defs>
</svg>
