<svg width="58" height="58" viewBox="0 0 58 58" fill="none" xmlns="http://www.w3.org/2000/svg">
    <circle cx="29" cy="29.0006" r="27.5" transform="rotate(178.555 29 29.0006)" stroke="url(#paint0_linear)"/>
    <g clip-path="url(#clip0)">
        <path d="M34.6661 29.3514L26.5526 37.8612C26.2868 38.1399 25.8453 38.1506 25.5662 37.8847C25.2873 37.6189 25.2768 37.1771 25.5427 36.8982L33.1733 28.895L25.1486 21.2866C24.8691 21.0214 24.8572 20.58 25.1224 20.3004C25.2554 20.1602 25.4324 20.0874 25.6112 20.0829C25.7895 20.0784 25.9693 20.1418 26.109 20.2741L34.6412 28.3638C34.7759 28.4912 34.854 28.6672 34.8587 28.8524C34.8634 29.0377 34.794 29.2172 34.6661 29.3514Z"
              fill="url(#paint1_linear)"/>
    </g>
    <defs>
        <linearGradient id="paint0_linear" x1="29" y1="1.00055" x2="29" y2="57.0006" gradientUnits="userSpaceOnUse">
            <stop stop-color="#EB926E"/>
            <stop offset="0.588542" stop-color="#EB652F"/>
        </linearGradient>
        <linearGradient id="paint1_linear" x1="30.2266" y1="37.9722" x2="29.7727" y2="19.9779"
                        gradientUnits="userSpaceOnUse">
            <stop stop-color="#EB926E"/>
            <stop offset="0.588542" stop-color="#EB652F"/>
        </linearGradient>
        <clipPath id="clip0">
            <rect width="18" height="18" fill="white"
                  transform="matrix(0.999682 -0.0252145 -0.0252145 -0.999682 21.2294 38.1992)"/>
        </clipPath>
    </defs>
</svg>
