<svg width="56" height="56" viewBox="0 0 56 56" fill="none" xmlns="http://www.w3.org/2000/svg">
<circle r="28" transform="matrix(-1 0 0 1 28 28)" fill="url(#paint0_linear)"/>
<g clip-path="url(#clip0)">
<path d="M33.6556 27.5061L25.33 19.2036C25.0573 18.9317 24.6156 18.9321 24.3433 19.205C24.0712 19.4777 24.0719 19.9196 24.3447 20.1917L32.1747 28L24.3444 35.8083C24.0717 36.0804 24.0709 36.522 24.343 36.7949C24.4795 36.9316 24.6584 37 24.8372 37C25.0156 37 25.1937 36.9321 25.33 36.7963L33.6556 28.494C33.7869 28.3633 33.8607 28.1854 33.8607 28C33.8607 27.8147 33.7867 27.637 33.6556 27.5061Z" fill="white"/>
</g>
<defs>
<linearGradient id="paint0_linear" x1="28" y1="0" x2="28" y2="56" gradientUnits="userSpaceOnUse">
<stop stop-color="#EB926E"/>
<stop offset="0.588542" stop-color="#EB652F"/>
</linearGradient>
<clipPath id="clip0">
<rect width="18" height="18" fill="white" transform="translate(20 19)"/>
</clipPath>
</defs>
</svg>
