<svg width="56" height="56" viewBox="0 0 56 56" fill="none" xmlns="http://www.w3.org/2000/svg">
    <circle r="28" transform="matrix(-1 0 0 1 28 28)" fill="url(#paint0_linear)"/>
    <g clip-path="url(#clip0)">
        <path d="M24.3399 28.4484L32.5832 36.8326C32.8533 37.1071 33.2949 37.111 33.5699 36.8409C33.8446 36.5708 33.8483 36.129 33.5782 35.8542L25.8256 27.969L33.7325 20.2383C34.0079 19.9689 34.013 19.5273 33.7436 19.2519C33.6085 19.1138 33.4303 19.0436 33.2515 19.0419C33.0731 19.0401 32.8943 19.1063 32.7567 19.2407L24.3497 27.4605C24.217 27.5899 24.1415 27.767 24.1397 27.9524C24.1379 28.1377 24.2101 28.3161 24.3399 28.4484Z"
              fill="white"/>
    </g>
    <defs>
        <linearGradient id="paint0_linear" x1="28" y1="0" x2="28" y2="56" gradientUnits="userSpaceOnUse">
            <stop stop-color="#EB926E"/>
            <stop offset="0.588542" stop-color="#EB652F"/>
        </linearGradient>
        <clipPath id="clip0">
            <rect width="18" height="18" fill="white" transform="translate(20 19)"/>
        </clipPath>
    </defs>
</svg>
