<svg width="56" height="56" viewBox="0 0 56 56" fill="none" xmlns="http://www.w3.org/2000/svg">
<circle cx="28" cy="28" r="27.5" stroke="url(#paint0_linear)"/>
<g clip-path="url(#clip0)">
<path d="M22.3445 27.5061L30.67 19.2036C30.9428 18.9317 31.3844 18.9321 31.6568 19.205C31.9289 19.4777 31.9282 19.9196 31.6554 20.1917L23.8254 28L31.6556 35.8083C31.9284 36.0804 31.9291 36.522 31.657 36.7949C31.5205 36.9316 31.3417 37 31.1629 37C30.9845 37 30.8063 36.9321 30.6701 36.7963L22.3445 28.494C22.2131 28.3633 22.1394 28.1854 22.1394 28C22.1394 27.8147 22.2133 27.637 22.3445 27.5061Z" fill="url(#paint1_linear)"/>
</g>
<defs>
<linearGradient id="paint0_linear" x1="28" y1="0" x2="28" y2="56" gradientUnits="userSpaceOnUse">
<stop stop-color="#EB926E"/>
<stop offset="0.588542" stop-color="#EB652F"/>
</linearGradient>
<linearGradient id="paint1_linear" x1="27" y1="19" x2="27" y2="37" gradientUnits="userSpaceOnUse">
<stop stop-color="#EB926E"/>
<stop offset="0.588542" stop-color="#EB652F"/>
</linearGradient>
<clipPath id="clip0">
<rect width="18" height="18" fill="white" transform="matrix(-1 0 0 1 36 19)"/>
</clipPath>
</defs>
</svg>
