<svg width="38" height="38" viewBox="0 0 38 38" fill="none" xmlns="http://www.w3.org/2000/svg">
    <path d="M37.5649 35.4653L26.8439 24.7442C31.7285 18.8012 31.3962 9.97886 25.8456 4.42833C19.9408 -1.47644 10.3331 -1.47644 4.42833 4.42833C-1.47644 10.3331 -1.47644 19.9408 4.42833 25.8456C9.97737 31.3946 18.7986 31.7306 24.7442 26.8439L35.4653 37.5649C36.0451 38.1447 36.9851 38.1447 37.5649 37.5649C38.1447 36.9851 38.1447 36.0451 37.5649 35.4653ZM23.746 23.7459C18.999 28.4929 11.275 28.4929 6.52798 23.7459C1.78095 18.9989 1.78095 11.2749 6.52798 6.52791C11.2749 1.7811 18.9988 1.78073 23.746 6.52791C28.493 11.2749 28.493 18.9989 23.746 23.7459Z"
          fill="white"/>
    <path d="M22.4064 13.6526H16.6218V7.86797C16.6218 7.048 15.9571 6.3833 15.1371 6.3833C14.3172 6.3833 13.6525 7.048 13.6525 7.86797V13.6526H7.86785C7.04788 13.6526 6.38318 14.3173 6.38318 15.1373C6.38318 15.9572 7.04788 16.6219 7.86785 16.6219H13.6525V22.4065C13.6525 23.2265 14.3172 23.8912 15.1371 23.8912C15.9571 23.8912 16.6218 23.2265 16.6218 22.4065V16.6219H22.4064C23.2264 16.6219 23.8911 15.9572 23.8911 15.1373C23.8911 14.3173 23.2264 13.6526 22.4064 13.6526Z"
          fill="white"/>
</svg>
